<?xml version="1.0" encoding="utf-8"?>
<!-- Generator: Adobe Illustrator 22.0.1, SVG Export Plug-In . SVG Version: 6.00 Build 0)  -->
<svg version="1.1" id="Layer_1" xmlns="http://www.w3.org/2000/svg" xmlns:xlink="http://www.w3.org/1999/xlink" x="0px" y="0px"
	 viewBox="0 0 512 512" style="enable-background:new 0 0 512 512;" xml:space="preserve">
<style type="text/css">
	.st0{fill:#666666;}
</style>
<path id="Shape" class="st0" d="M471.6,63.6C444.7,35,407.5,18.3,368.2,17.1c-39.3-1.1-77.4,13.4-105.9,40.4l-6.5,6.1
	C199.7,4.1,106,1.4,46.5,57.5s-62.3,149.8-6.2,209.3L55,282.2c-6.2,14.3-4.2,30.7,5.2,43.1s24.6,18.8,40,16.9
	c-2.6,13.6,1.5,27.6,11,37.6c9.5,10.1,23.2,14.9,36.9,13.1c-2.6,13.6,1.5,27.6,11,37.6c9.5,10.1,23.2,14.9,36.9,13.1
	c-3.4,18.4,5.4,37,21.9,45.9s36.8,6.3,50.5-6.5c48.7-46,47.2-43.7,51.8-51.4c14.2,7,31.2,5.6,44.1-3.6s19.7-24.8,17.7-40.6
	c13.6,2.5,27.5-1.6,37.6-11c10-9.5,14.9-23.2,13.1-36.9c18.5,3.4,37.2-5.6,46-22.2s6-37.1-7.1-50.6
	C525.5,209.8,525.5,120.6,471.6,63.6L471.6,63.6z M75.7,317.4c-10-10.6-9.5-27.3,1.1-37.3l44.4-41.9c10.6-9.8,27.1-9.2,37,1.3
	s9.5,27-0.9,37.1l-44.4,41.9C102.3,328.5,85.6,328,75.7,317.4z M123.5,368.2c-10-10.6-9.5-27.3,1.1-37.3L169,289
	c10.6-10,27.3-9.5,37.2,1.1c10,10.6,9.5,27.3-1.1,37.2l-44.4,41.9C150.2,379.2,133.5,378.7,123.5,368.2L123.5,368.2z M171.4,418.9
	c-10-10.6-9.5-27.3,1.1-37.2l44.4-41.9c10.7-9.4,26.8-8.6,36.5,1.7c9.7,10.3,9.6,26.5-0.4,36.6L208.6,420
	C198.1,429.9,181.4,429.4,171.4,418.9L171.4,418.9z M256.5,470.7c-6.8,6.5-16.6,8.8-25.6,6.1s-15.9-10-18.1-19.2
	c-2.2-9.2,0.7-18.8,7.6-25.2l44.4-41.9c10.6-9.8,27.1-9.2,37,1.3s9.5,27-0.9,37.1L256.5,470.7z M458.4,316.1
	c-5.1,4.8-11.9,7.4-18.8,7.2s-13.6-3.2-18.4-8.3L307.4,194.6c-3.2-3.4-8.6-3.6-12.1-0.3c-3.4,3.2-3.6,8.6-0.3,12.1l113.7,120.5
	c6.5,6.8,8.8,16.6,6.1,25.6c-2.7,9-10,15.9-19.2,18.1s-18.8-0.7-25.2-7.5L256.7,242.4c-2.1-2.2-5.2-3.2-8.2-2.4
	c-3,0.7-5.3,2.9-6.2,5.9c-0.9,2.9-0.1,6.1,2,8.3L358,374.6c9,9.5,9.6,24.2,1.5,34.4s-22.5,13-33.8,6.4c1.8-12.2-1.8-24.6-9.7-34
	c-7.9-9.4-19.5-15-31.9-15.3c-9.4-0.2-6,3.3-5.7-6.1c0.3-11.5-3.9-22.7-11.8-31.1s-18.8-13.3-30.3-13.6c-9.4-0.3-6,3.4-5.7-6.1
	c0.3-11.5-3.9-22.7-11.8-31.1s-18.8-13.3-30.3-13.6c-9.4-0.3-6,3.5-5.7-6.1c0.5-17.5-9.7-33.6-25.7-40.8s-34.7-4-47.5,8
	c-61,57.6-40,37.7-44.5,42L52.8,255C3.2,202.4,5.6,119.5,58.3,69.9s135.5-47.2,185.2,5.5l-69.9,66c-6.6,6.4-10.5,15-10.9,24.2
	c-0.9,35,51.3,57.1,83.1,27l63.7-60.1c1.6-1.6,3.8-2.4,6.1-2.3c2.3,0.1,4.4,1,6,2.7C338.3,150.6,443.5,262,459.5,279
	c4.8,5.1,7.4,11.9,7.2,18.8C466.4,304.7,463.5,311.3,458.4,316.1L458.4,316.1z M459.8,254.4L333.9,121c-4.7-4.9-11.1-7.8-17.9-8
	s-13.4,2.3-18.3,7L234,180.1c-6.8,6.4-15.8,9.8-25.1,9.5s-18.1-4.3-24.5-11.1c-3.2-3.4-4.9-7.9-4.8-12.6c0.1-4.7,2.1-9.1,5.5-12.3
	L274,69.9c51.4-48.7,132.1-47.7,182.4,2.2S508.1,202.7,459.8,254.4L459.8,254.4z"/>
</svg>
